<svg width="22" height="20" viewBox="0 0 22 20" fill="none" xmlns="http://www.w3.org/2000/svg">
<g clip-path="url(#clip0_84_189)">
<path d="M13.4931 13.3329L12.8148 13.4456C12.7984 13.3471 12.8037 13.2463 12.8302 13.15C12.8568 13.0538 12.904 12.9645 12.9685 12.8883C13.0331 12.8122 13.1135 12.751 13.2041 12.709C13.2946 12.6671 13.3933 12.6453 13.4931 12.6454V13.3329ZM3.40979 13.3329V14.0204C3.22745 14.0204 3.05259 13.9479 2.92365 13.819C2.79472 13.6901 2.72229 13.5152 2.72229 13.3329H3.40979ZM5.24312 3.4787H15.6565V4.8537H5.24312V3.4787ZM16.7565 14.0204H13.4931V12.6454H16.7565V14.0204ZM14.1715 13.2201L14.9103 17.6522L13.5536 17.8786L12.8148 13.4456L14.1715 13.2201ZM13.3281 19.5204H13.132V18.1454H13.3272L13.3281 19.5204ZM10.271 17.9895L7.96562 14.5309L9.10962 13.7683L11.415 17.2269L10.271 17.9895ZM7.01229 14.0204H3.40979V12.6454H7.01229V14.0204ZM2.72229 13.3329V5.99953H4.09729V13.3329H2.72229ZM18.1287 5.50453L19.2287 11.0045L17.8812 11.2749L16.7812 5.77495L18.1287 5.50453ZM7.96562 14.5309C7.86103 14.3739 7.71929 14.2461 7.55298 14.157C7.38667 14.068 7.20095 14.0213 7.01229 14.0213V12.6463C7.85562 12.6463 8.64212 13.067 9.10962 13.7683L7.96562 14.5309ZM14.9103 17.6522C14.9486 17.882 14.9365 18.1183 14.8746 18.343C14.8128 18.5676 14.7027 18.7761 14.5521 18.9539C14.4016 19.1316 14.2141 19.2745 14.0027 19.3725C13.7913 19.4705 13.5611 19.5203 13.3281 19.5204V18.1463C13.3614 18.1462 13.3942 18.1389 13.4243 18.1249C13.4544 18.1108 13.4811 18.0904 13.5026 18.0651C13.524 18.0397 13.5397 18.01 13.5485 17.9779C13.5573 17.9459 13.5591 17.9114 13.5536 17.8786L14.9103 17.6522ZM16.7565 12.6463C16.926 12.6463 17.0934 12.6087 17.2467 12.5362C17.3999 12.4637 17.5352 12.3581 17.6427 12.227C17.7502 12.0959 17.8273 11.9426 17.8684 11.7781C17.9094 11.6137 17.9135 11.4421 17.8803 11.2759L19.2287 11.0054C19.3018 11.3712 19.2928 11.7495 19.2025 12.1113C19.1121 12.4732 18.9425 12.8105 18.706 13.0989C18.4696 13.3873 18.172 13.6196 17.8349 13.7791C17.4977 13.9386 17.1294 14.0213 16.7565 14.0213V12.6463ZM15.6565 3.4787C16.2392 3.47858 16.804 3.68128 17.2547 4.05062C17.7054 4.41997 18.0143 4.93315 18.1287 5.50453L16.7812 5.77495C16.7294 5.51481 16.589 5.28161 16.3839 5.11345C16.1788 4.94528 15.9217 4.85348 15.6565 4.8537V3.4787ZM13.132 19.5204C12.5661 19.5203 12.0089 19.3815 11.51 19.1144C11.0111 18.8474 10.5858 18.4613 10.272 17.9904L11.415 17.2278C11.6035 17.5104 11.8588 17.7422 12.1583 17.9024C12.4578 18.0626 12.7923 18.1455 13.132 18.1454V19.5204ZM5.24312 4.8537C4.61062 4.8537 4.09729 5.36703 4.09729 5.99953H2.72229C2.72229 5.33097 2.98788 4.68978 3.46062 4.21703C3.93337 3.74429 4.57456 3.4787 5.24312 3.4787V4.8537Z" fill="#DC4040"/>
<path d="M7.07642 13.3329V4.1662" stroke="#DC4040" stroke-width="1.5"/>
</g>
<defs>
<clipPath id="clip0_84_189">
<rect width="20.5553" height="19.0426" fill="white" transform="translate(0.72229 0.478699)"/>
</clipPath>
</defs>
</svg>
