<svg width="22" height="22" viewBox="0 0 22 22" fill="none" xmlns="http://www.w3.org/2000/svg">
<path d="M13.4932 8.66712L12.8149 8.55437C12.7985 8.65285 12.8038 8.75372 12.8304 8.84996C12.8569 8.9462 12.9041 9.0355 12.9687 9.11166C13.0332 9.18782 13.1136 9.249 13.2042 9.29096C13.2948 9.33291 13.3934 9.35464 13.4932 9.35462V8.66712ZM3.40991 8.66712V7.97962C3.22758 7.97962 3.05271 8.05205 2.92378 8.18098C2.79484 8.30991 2.72241 8.48478 2.72241 8.66712H3.40991ZM5.24325 18.5213H15.6566V17.1463H5.24325V18.5213ZM16.7566 7.97962H13.4932V9.35462H16.7566V7.97962ZM14.1716 8.77987L14.9104 4.34778L13.5537 4.12137L12.8149 8.55437L14.1716 8.77987ZM13.3282 2.47962H13.1321V3.85462H13.3273L13.3282 2.47962ZM10.2712 4.01045L7.96575 7.46903L9.10975 8.2317L11.4152 4.77312L10.2712 4.01045ZM7.01241 7.97962H3.40991V9.35462H7.01241V7.97962ZM2.72241 8.66712V16.0004H4.09741V8.66712H2.72241ZM18.1288 16.4954L19.2288 10.9954L17.8813 10.725L16.7813 16.225L18.1288 16.4945V16.4954ZM7.96575 7.46903C7.86115 7.62604 7.71941 7.75388 7.5531 7.84295C7.3868 7.93202 7.20107 7.97865 7.01241 7.9787V9.3537C7.85575 9.3537 8.64225 8.93295 9.10975 8.2317L7.96575 7.46903ZM14.9104 4.34778C14.9486 4.11804 14.9363 3.88181 14.8744 3.6573C14.8125 3.43278 14.7024 3.22444 14.5519 3.04675C14.4013 2.86906 14.2139 2.72628 14.0025 2.62835C13.7912 2.53041 13.5611 2.47966 13.3282 2.47962L13.3273 3.85462C13.3606 3.8547 13.3943 3.862 13.4244 3.87603C13.4545 3.89005 13.4812 3.91046 13.5027 3.93583C13.5241 3.96121 13.5398 3.99094 13.5486 4.02298C13.5575 4.05502 13.5592 4.08859 13.5537 4.12137L14.9104 4.34778ZM16.7566 9.3537C17.4807 9.3537 18.0216 10.0155 17.8804 10.7241L19.2288 10.9945C19.3018 10.6289 19.2927 10.2507 19.2022 9.88893C19.1118 9.5272 18.9422 9.19003 18.7057 8.90174C18.4693 8.61345 18.1718 8.38121 17.8347 8.22175C17.4977 8.0623 17.1294 7.9796 16.7566 7.97962V9.35462V9.3537ZM15.6566 18.5213C16.2393 18.5214 16.8041 18.3187 17.2548 17.9494C17.7056 17.58 18.0144 17.0659 18.1288 16.4945L16.7813 16.2241C16.7294 16.4841 16.5889 16.718 16.3838 16.886C16.1787 17.054 15.9217 17.1465 15.6566 17.1463V18.5213ZM13.1321 2.47962C12.5662 2.47966 12.0091 2.61849 11.5101 2.88553C11.0112 3.15258 10.586 3.53867 10.2721 4.00953L11.4152 4.77312C11.6036 4.49047 11.8589 4.25782 12.1584 4.09758C12.4579 3.93735 12.7924 3.85449 13.1321 3.85462V2.47962ZM5.24325 17.1463C4.61075 17.1463 4.09741 16.6329 4.09741 16.0004H2.72241C2.72241 16.669 2.988 17.3102 3.46075 17.7829C3.93349 18.2557 4.57468 18.5213 5.24325 18.5213V17.1463Z" fill="#64A035"/>
<path d="M7.07654 8.66711V17.8338" stroke="#64A035" stroke-width="1.5"/>
</svg>
