<svg width="83" height="56" viewBox="0 0 83 56" fill="none" xmlns="http://www.w3.org/2000/svg">
<path d="M21.75 33.5781L23.2433 33.7194L23.3986 32.0781H21.75V33.5781ZM20.7656 43.9844L20.8828 45.4798L22.1402 45.3812L22.259 44.1256L20.7656 43.9844ZM1.03125 45.5312L-0.468374 45.4976L-0.505543 47.1563L1.14847 47.0267L1.03125 45.5312ZM1.78125 12.0625V10.5625H0.314487L0.281626 12.0289L1.78125 12.0625ZM13.9688 12.0625L15.4639 12.183L15.5945 10.5625H13.9688V12.0625ZM12.2344 33.5781L10.7392 33.4576L10.6086 35.0781H12.2344V33.5781ZM20.2567 33.4369L19.2723 43.8431L22.259 44.1256L23.2433 33.7194L20.2567 33.4369ZM20.6484 42.489L0.914032 44.0358L1.14847 47.0267L20.8828 45.4798L20.6484 42.489ZM2.53087 45.5649L3.28087 12.0961L0.281626 12.0289L-0.468374 45.4976L2.53087 45.5649ZM1.78125 13.5625H13.9688V10.5625H1.78125V13.5625ZM12.4736 11.942L10.7392 33.4576L13.7295 33.6986L15.4639 12.183L12.4736 11.942ZM12.2344 35.0781H21.75V32.0781H12.2344V35.0781ZM51.3281 32.1719L52.7833 32.5357L52.7843 32.5316L51.3281 32.1719ZM49.8984 35.875L48.5789 35.1617L48.5751 35.1687L48.5714 35.1756L49.8984 35.875ZM47.6484 39.0625L46.5442 38.0473L46.5435 38.0481L47.6484 39.0625ZM44.6719 41.5234L43.8817 40.2484L43.8736 40.2535L44.6719 41.5234ZM41.0859 43.1406L41.5026 44.5816L41.5106 44.5793L41.5185 44.5769L41.0859 43.1406ZM32.9297 43.1641L32.52 44.607L32.5246 44.6083L32.9297 43.1641ZM29.3672 41.6641L28.6035 42.9551L28.6103 42.9591L28.6171 42.963L29.3672 41.6641ZM26.3438 39.3203L25.265 40.3625L25.2739 40.3718L25.2831 40.381L26.3438 39.3203ZM24.0469 36.2734L22.7356 37.0019L22.7417 37.0128L22.7479 37.0235L24.0469 36.2734ZM22.5703 32.6641L21.1215 33.0528L21.1238 33.061L21.126 33.0692L22.5703 32.6641ZM22.5469 24.6719L24.0011 25.0398L24.0021 25.0357L22.5469 24.6719ZM23.9531 20.9688L22.6336 20.2555L22.6298 20.2624L22.6261 20.2694L23.9531 20.9688ZM29.1328 15.2734L28.3217 14.0116L28.3134 14.017L29.1328 15.2734ZM42.8672 14.1016L42.3366 15.5046L42.3405 15.5061L42.8672 14.1016ZM47.6484 17.125L46.5878 18.1857L46.5941 18.192L46.6005 18.1982L47.6484 17.125ZM50.7188 21.8594L49.3196 22.4002L49.3224 22.4073L49.3252 22.4144L50.7188 21.8594ZM41.1094 26.7109L39.6698 27.1323L39.676 27.1535L39.6828 27.1746L41.1094 26.7109ZM40.2656 25.0234L39.0656 25.9234L39.0725 25.9326L39.0795 25.9417L40.2656 25.0234ZM38.8594 23.8281L38.1152 25.1305L38.137 25.143L38.1592 25.1547L38.8594 23.8281ZM33.4922 24.8594L32.3772 23.8559L32.3753 23.8581L33.4922 24.8594ZM32.5547 26.4766L33.9665 26.9834L33.9705 26.9721L32.5547 26.4766ZM34.7344 33.4609L33.9626 34.7472L33.9706 34.7519L33.9786 34.7566L34.7344 33.4609ZM38.6484 33.5312L39.3046 34.8801L39.312 34.8765L39.3193 34.8729L38.6484 33.5312ZM40.1484 32.3594L41.2977 33.3233L41.3052 33.3143L41.3126 33.3053L40.1484 32.3594ZM50.3203 28.0469C50.3203 29.3523 50.1698 30.6062 49.8719 31.8121L52.7843 32.5316C53.1427 31.0813 53.3203 29.5852 53.3203 28.0469H50.3203ZM49.8729 31.8081C49.5743 33.0025 49.1425 34.119 48.5789 35.1617L51.218 36.5883C51.9044 35.3185 52.4257 33.9663 52.7833 32.5357L49.8729 31.8081ZM48.5714 35.1756C48.0228 36.2167 47.3479 37.1731 46.5442 38.0473L48.7527 40.0777C49.7303 39.0144 50.5553 37.8458 51.2254 36.5744L48.5714 35.1756ZM46.5435 38.0481C45.7618 38.8995 44.8758 39.6324 43.8817 40.2484L45.462 42.7985C46.6867 42.0395 47.785 41.1317 48.7534 40.0769L46.5435 38.0481ZM43.8736 40.2535C42.8991 40.866 41.8277 41.3506 40.6533 41.7044L41.5185 44.5769C42.938 44.1494 44.2571 43.5559 45.4701 42.7934L43.8736 40.2535ZM40.6693 41.6997C39.5177 42.0326 38.2838 42.2031 36.9609 42.2031V45.2031C38.5443 45.2031 40.0604 44.9986 41.5026 44.5816L40.6693 41.6997ZM36.9609 42.2031C35.6839 42.2031 34.4769 42.0401 33.3348 41.7198L32.5246 44.6083C33.945 45.0067 35.4255 45.2031 36.9609 45.2031V42.2031ZM33.3394 41.7211C32.1895 41.3946 31.1167 40.9422 30.1173 40.3651L28.6171 42.963C29.8364 43.6672 31.1386 44.2148 32.52 44.607L33.3394 41.7211ZM30.1309 40.373C29.1291 39.7805 28.2212 39.0765 27.4044 38.2597L25.2831 40.381C26.2788 41.3767 27.3865 42.2352 28.6035 42.9551L30.1309 40.373ZM27.4225 38.2781C26.6169 37.4442 25.9252 36.5267 25.3458 35.5233L22.7479 37.0235C23.4498 38.239 24.2894 39.3527 25.265 40.3625L27.4225 38.2781ZM25.3581 35.545C24.7918 34.5256 24.3434 33.4314 24.0146 32.259L21.126 33.0692C21.5159 34.4592 22.0519 35.7712 22.7356 37.0019L25.3581 35.545ZM24.0191 32.2754C23.7109 31.1269 23.5547 29.922 23.5547 28.6562H20.5547C20.5547 30.1718 20.7422 31.6388 21.1215 33.0528L24.0191 32.2754ZM23.5547 28.6562C23.5547 27.4189 23.7039 26.2145 24.0011 25.0398L21.0927 24.304C20.7336 25.723 20.5547 27.1748 20.5547 28.6562H23.5547ZM24.0021 25.0357C24.3021 23.8357 24.7287 22.7144 25.2801 21.6681L22.6261 20.2694C21.9588 21.5356 21.4479 22.8831 21.0917 24.3081L24.0021 25.0357ZM25.2727 21.682C25.8412 20.6303 26.522 19.666 27.3163 18.7867L25.09 16.7758C24.1342 17.834 23.3151 18.9947 22.6336 20.2555L25.2727 21.682ZM27.3163 18.7867C28.1058 17.9125 28.984 17.1613 29.9522 16.5299L28.3134 14.017C27.1254 14.7918 26.0504 15.7125 25.09 16.7758L27.3163 18.7867ZM29.9439 16.5352C30.921 15.9071 31.9763 15.4173 33.1142 15.0661L32.2295 12.1995C30.8362 12.6296 29.5321 13.2335 28.3217 14.0117L29.9439 16.5352ZM33.1142 15.0661C34.228 14.7224 35.4141 14.5469 36.6797 14.5469V11.5469C35.1327 11.5469 33.647 11.762 32.2295 12.1995L33.1142 15.0661ZM36.6797 14.5469C38.7891 14.5469 40.6687 14.8739 42.3366 15.5046L43.3977 12.6985C41.3469 11.923 39.1015 11.5469 36.6797 11.5469V14.5469ZM42.3405 15.5061C44.031 16.14 45.4383 17.0362 46.5878 18.1857L48.7091 16.0643C47.2335 14.5888 45.4533 13.4694 43.3939 12.6971L42.3405 15.5061ZM46.6005 18.1982C47.7636 19.334 48.6726 20.7263 49.3196 22.4002L52.1179 21.3185C51.3274 19.2737 50.1895 17.5098 48.6964 16.0518L46.6005 18.1982ZM49.3252 22.4144C49.9796 24.0572 50.3203 25.9276 50.3203 28.0469H53.3203C53.3203 25.6036 52.9267 23.349 52.1123 21.3043L49.3252 22.4144ZM42.9141 28.6562C42.9141 27.8305 42.7888 27.0254 42.5359 26.2473L39.6828 27.1746C39.8362 27.6465 39.9141 28.1382 39.9141 28.6562H42.9141ZM42.549 26.2896C42.3135 25.4851 41.9514 24.7507 41.4517 24.1052L39.0795 25.9417C39.3298 26.265 39.5302 26.6555 39.6698 27.1323L42.549 26.2896ZM41.4656 24.1234C40.9552 23.4428 40.3145 22.9 39.5595 22.5015L38.1592 25.1547C38.5292 25.35 38.8261 25.604 39.0656 25.9234L41.4656 24.1234ZM39.6036 22.5258C38.7997 22.0664 37.9033 21.8594 36.9609 21.8594V24.8594C37.4561 24.8594 37.8253 24.9649 38.1152 25.1305L39.6036 22.5258ZM36.9609 21.8594C36.0436 21.8594 35.1686 22.026 34.3659 22.3948L35.6184 25.1208C35.972 24.9584 36.4095 24.8594 36.9609 24.8594V21.8594ZM34.3659 22.3948C33.6038 22.745 32.9371 23.2339 32.3772 23.8559L34.6071 25.8628C34.8911 25.5473 35.2243 25.3019 35.6184 25.1208L34.3659 22.3948ZM32.3753 23.8581C31.8258 24.4709 31.4172 25.1859 31.1389 25.981L33.9705 26.9721C34.1297 26.5172 34.346 26.1541 34.609 25.8607L32.3753 23.8581ZM31.1429 25.9698C30.8623 26.7516 30.7266 27.5724 30.7266 28.4219H33.7266C33.7266 27.8964 33.8096 27.4203 33.9665 26.9834L31.1429 25.9698ZM30.7266 28.4219C30.7266 29.223 30.8413 30.0178 31.0655 30.8027L33.9501 29.9785C33.7993 29.4509 33.7266 28.9333 33.7266 28.4219H30.7266ZM31.0655 30.8027C31.297 31.6129 31.6491 32.3612 32.1261 33.0369L34.577 31.3069C34.304 30.92 34.0936 30.4808 33.9501 29.9785L31.0655 30.8027ZM32.1261 33.0369C32.619 33.7351 33.2333 34.3096 33.9626 34.7472L35.5061 32.1747C35.1417 31.956 34.8341 31.6711 34.577 31.3069L32.1261 33.0369ZM33.9786 34.7566C34.7986 35.235 35.7144 35.4531 36.6797 35.4531V32.4531C36.1763 32.4531 35.7951 32.3431 35.4902 32.1653L33.9786 34.7566ZM36.6797 35.4531C37.609 35.4531 38.4948 35.2741 39.3046 34.8801L37.9922 32.1824C37.6459 32.3509 37.2191 32.4531 36.6797 32.4531V35.4531ZM39.3193 34.8729C40.0873 34.4889 40.753 33.9728 41.2977 33.3233L38.9992 31.3955C38.7314 31.7147 38.3971 31.9799 37.9776 32.1896L39.3193 34.8729ZM41.3126 33.3053C41.8361 32.6609 42.2324 31.9328 42.5055 31.1332L39.6664 30.1637C39.502 30.6454 39.2733 31.0578 38.9843 31.4135L41.3126 33.3053ZM42.5055 31.1332C42.7783 30.334 42.9141 29.506 42.9141 28.6562H39.9141C39.9141 29.1815 39.831 29.6816 39.6664 30.1637L42.5055 31.1332ZM81.7969 40.75L82.9701 41.6846L83.3066 41.2623L83.2966 40.7224L81.7969 40.75ZM71.8125 45.9062L72.062 47.3854L72.0706 47.3839L72.0793 47.3823L71.8125 45.9062ZM56.9062 41.8984L55.8456 42.9591L55.8516 42.9651L55.8577 42.9711L56.9062 41.8984ZM54.75 21.3203L53.4203 20.6259L53.4143 20.6376L54.75 21.3203ZM65.3438 12.4844L65.7577 13.9262L65.767 13.9234L65.3438 12.4844ZM72.5625 11.875L72.4405 13.37L72.4556 13.3713L72.4708 13.3722L72.5625 11.875ZM74.8359 12.1562L74.5595 13.6306L74.5768 13.6338L74.5942 13.6366L74.8359 12.1562ZM79.0312 13.5625L80.5272 13.6722L80.5959 12.7351L79.7828 12.2644L79.0312 13.5625ZM78.375 22.5156L77.8483 23.9201L79.7245 24.6237L79.871 22.6253L78.375 22.5156ZM75.6562 21.8594L75.4547 23.3458L75.4686 23.3477L75.4824 23.3493L75.6562 21.8594ZM69.4219 22.1875L69.8586 23.6226L69.8716 23.6185L69.4219 22.1875ZM66.5859 23.6641L65.6434 22.4972L65.6379 22.5016L65.6324 22.5062L66.5859 23.6641ZM64.3125 31.9141L62.8702 32.3262L62.8725 32.3341L64.3125 31.9141ZM65.2969 33.9297L64.0893 34.8195L64.1025 34.8374L64.1163 34.855L65.2969 33.9297ZM66.9609 35.3359L66.2405 36.6516L66.2469 36.6551L66.2535 36.6586L66.9609 35.3359ZM71.1094 35.6406L70.7539 34.1833L70.7456 34.1854L71.1094 35.6406ZM72.75 34.8438L73.7064 35.9993L74.2143 35.579L74.248 34.9206L72.75 34.8438ZM72.8438 33.0156L74.3418 33.0924L74.4213 31.5417L72.8687 31.5158L72.8438 33.0156ZM67.2188 32.9219L65.7199 32.8619L65.6586 34.3961L67.1938 34.4217L67.2188 32.9219ZM67.5 25.8906L67.4497 24.3915L66.0569 24.4382L66.0012 25.8307L67.5 25.8906ZM74.4844 25.7031L74.5146 27.2029L74.5246 27.2026L74.4844 25.7031ZM81.5156 25.4688L83.0154 25.4411L82.9872 23.9091L81.4561 23.9699L81.5156 25.4688ZM80.6236 39.8154C80.0008 40.5972 79.222 41.2933 78.2716 41.8993L79.8846 44.4288C81.0905 43.6598 82.1242 42.7466 82.9701 41.6846L80.6236 39.8154ZM78.2716 41.8993C77.2871 42.5271 76.2283 43.0499 75.0925 43.4669L76.1263 46.2831C77.4592 45.7938 78.7129 45.176 79.8846 44.4288L78.2716 41.8993ZM75.0925 43.4669C73.9395 43.8901 72.7576 44.2111 71.5457 44.4302L72.0793 47.3823C73.4611 47.1326 74.8105 46.7661 76.1263 46.2831L75.0925 43.4669ZM71.563 44.4271C70.3387 44.6336 69.1882 44.7344 68.1094 44.7344V47.7344C69.3743 47.7344 70.6925 47.6164 72.062 47.3854L71.563 44.4271ZM68.1094 44.7344C66.0156 44.7344 64.1217 44.3812 62.4106 43.694L61.2925 46.4779C63.3939 47.3219 65.6719 47.7344 68.1094 47.7344V44.7344ZM62.4106 43.694C60.6764 42.9975 59.1969 42.04 57.9548 40.8258L55.8577 42.9711C57.3968 44.4756 59.2142 45.6431 61.2925 46.4779L62.4106 43.694ZM57.9669 40.8378C56.7387 39.6096 55.768 38.145 55.0582 36.4271L52.2856 37.5729C53.1382 39.6363 54.3238 41.4373 55.8456 42.9591L57.9669 40.8378ZM55.0582 36.4271C54.3587 34.7343 54 32.8686 54 30.8125H51C51 33.2252 51.4226 35.4844 52.2856 37.5729L55.0582 36.4271ZM54 30.8125C54 29.2252 54.1819 27.6878 54.5436 26.1976L51.6283 25.4899C51.2087 27.2184 51 28.9936 51 30.8125H54ZM54.5436 26.1976C54.9079 24.6967 55.4228 23.2998 56.0857 22.003L53.4143 20.6376C52.6397 22.1533 52.0452 23.7721 51.6283 25.4899L54.5436 26.1976ZM56.0796 22.0147C56.7571 20.7173 57.5771 19.5309 58.5405 18.4524L56.3032 16.4538C55.1729 17.7191 54.2116 19.1108 53.4204 20.626L56.0796 22.0147ZM58.5405 18.4524C59.4953 17.3837 60.577 16.4656 61.7887 15.6958L60.18 13.1636C58.7355 14.0813 57.4422 15.1788 56.3032 16.4538L58.5405 18.4524ZM61.7887 15.6958C62.9906 14.9322 64.3114 14.3414 65.7577 13.9261L64.9298 11.0426C63.2198 11.5336 61.6344 12.2396 60.18 13.1636L61.7887 15.6958ZM65.767 13.9234C67.2137 13.4979 68.758 13.2812 70.4062 13.2812V10.2812C68.492 10.2812 66.6613 10.5333 64.9205 11.0453L65.767 13.9234ZM70.4062 13.2812C71.0321 13.2812 71.7098 13.3104 72.4405 13.37L72.6845 10.38C71.8839 10.3146 71.1241 10.2812 70.4062 10.2812V13.2812ZM72.4708 13.3722C73.1748 13.4153 73.8709 13.5014 74.5595 13.6306L75.1124 10.6819C74.301 10.5298 73.4815 10.4285 72.6542 10.3778L72.4708 13.3722ZM74.5942 13.6366C75.2861 13.7496 75.9535 13.9114 76.5975 14.1214L77.5275 11.2692C76.734 11.0104 75.917 10.8129 75.0776 10.6759L74.5942 13.6366ZM76.5975 14.1214C77.2265 14.3265 77.7854 14.5745 78.2797 14.8606L79.7828 12.2644C79.0896 11.863 78.336 11.5329 77.5275 11.2692L76.5975 14.1214ZM77.5353 13.4528L76.879 22.406L79.871 22.6253L80.5272 13.6722L77.5353 13.4528ZM78.9017 21.1111C77.9118 20.7399 76.887 20.4928 75.8301 20.3695L75.4824 23.3493C76.3005 23.4447 77.0882 23.6351 77.8483 23.9201L78.9017 21.1111ZM75.8578 20.373C74.8721 20.2393 73.8985 20.1719 72.9375 20.1719V23.1719C73.7578 23.1719 74.5967 23.2294 75.4547 23.3458L75.8578 20.373ZM72.9375 20.1719C71.5486 20.1719 70.2239 20.3631 68.9721 20.7565L69.8716 23.6185C70.8073 23.3244 71.8264 23.1719 72.9375 23.1719V20.1719ZM68.9851 20.7525C67.7374 21.1322 66.6172 21.7106 65.6434 22.4972L67.5284 24.831C68.1796 24.305 68.9501 23.899 69.8586 23.6225L68.9851 20.7525ZM65.6324 22.5062C64.6565 23.3098 63.891 24.3088 63.3332 25.4801L66.0418 26.7699C66.4215 25.9724 66.9216 25.3308 67.5395 24.822L65.6324 22.5062ZM63.3332 25.4801C62.752 26.7006 62.4844 28.0687 62.4844 29.5469H65.4844C65.4844 28.4313 65.6855 27.5182 66.0418 26.7699L63.3332 25.4801ZM62.4844 29.5469C62.4844 30.4959 62.6124 31.4238 62.8702 32.3261L65.7548 31.502C65.5751 30.8731 65.4844 30.2229 65.4844 29.5469H62.4844ZM62.8725 32.3341C63.1376 33.243 63.5413 34.0758 64.0893 34.8195L66.5045 33.0399C66.1775 32.5961 65.9249 32.0851 65.7525 31.4941L62.8725 32.3341ZM64.1163 34.855C64.6971 35.5961 65.4094 36.1965 66.2405 36.6516L67.6814 34.0203C67.2 33.7567 66.8029 33.4195 66.4775 33.0044L64.1163 34.855ZM66.2535 36.6586C67.1734 37.1507 68.1963 37.375 69.2812 37.375V34.375C68.6162 34.375 68.0923 34.24 67.6684 34.0133L66.2535 36.6586ZM69.2812 37.375C70.0076 37.375 70.7392 37.2793 71.4732 37.0958L70.7456 34.1854C70.2295 34.3144 69.7424 34.375 69.2812 34.375V37.375ZM71.4648 37.0979C72.2991 36.8944 73.0582 36.5358 73.7064 35.9993L71.7936 33.6882C71.5356 33.9017 71.2009 34.0743 70.7539 34.1833L71.4648 37.0979ZM74.248 34.9206L74.3418 33.0924L71.3457 32.9388L71.252 34.7669L74.248 34.9206ZM72.8687 31.5158L67.2437 31.4221L67.1938 34.4217L72.8188 34.5154L72.8687 31.5158ZM68.7176 32.9818L68.9988 25.9506L66.0012 25.8307L65.7199 32.8619L68.7176 32.9818ZM67.5503 27.3898C69.8717 27.3119 72.1932 27.2496 74.5146 27.2028L74.4542 24.2034C72.1193 24.2504 69.7845 24.3131 67.4497 24.3915L67.5503 27.3898ZM74.5246 27.2026C76.8593 27.1399 79.2095 27.0616 81.5752 26.9676L81.4561 23.9699C79.103 24.0634 76.7657 24.1413 74.4441 24.2037L74.5246 27.2026ZM80.0159 25.4964L80.2971 40.7776L83.2966 40.7224L83.0154 25.4411L80.0159 25.4964Z" fill="#FFE074"/>
</svg>
