<svg width="114" height="56" viewBox="0 0 114 56" fill="none" xmlns="http://www.w3.org/2000/svg">
<path d="M28.5 20.4531C28.5 21.9688 28.2734 23.3125 27.8203 24.4844C27.3672 25.6562 26.7422 26.6797 25.9453 27.5547C25.1641 28.4297 24.2422 29.1719 23.1797 29.7812C22.1172 30.3906 20.9766 30.8906 19.7578 31.2812C18.5547 31.6562 17.3047 31.9375 16.0078 32.125C14.7109 32.2969 13.4375 32.3906 12.1875 32.4062V43.3281H1.26562C1.26562 39.75 1.27344 36.1875 1.28906 32.6406C1.30469 29.0938 1.32812 25.5156 1.35938 21.9062C1.39062 20 1.39844 18.0938 1.38281 16.1875C1.36719 14.2813 1.40625 12.3594 1.5 10.4219C3.5 9.82813 5.5 9.38281 7.5 9.08594C9.5 8.78906 11.5625 8.64062 13.6875 8.64062C14.8906 8.64062 16.0938 8.74219 17.2969 8.94531C18.5 9.13281 19.6484 9.4375 20.7422 9.85938C21.8516 10.2812 22.875 10.8125 23.8125 11.4531C24.7656 12.0781 25.5859 12.8281 26.2734 13.7031C26.9609 14.5781 27.5 15.5781 27.8906 16.7031C28.2969 17.8125 28.5 19.0625 28.5 20.4531ZM18.0938 21.25C18.0938 20.2344 17.7812 19.4453 17.1562 18.8828C16.5469 18.3047 15.75 18.0156 14.7656 18.0156C14.4375 18.0156 14.0938 18.0469 13.7344 18.1094C13.3906 18.1562 13.0625 18.2188 12.75 18.2969L12.4688 25.1406C12.6875 25.1719 12.8984 25.1875 13.1016 25.1875C13.3047 25.1875 13.5156 25.1875 13.7344 25.1875C14.2969 25.1875 14.8359 25.0938 15.3516 24.9062C15.8828 24.7188 16.3516 24.4531 16.7578 24.1094C17.1641 23.75 17.4844 23.3359 17.7188 22.8672C17.9688 22.3828 18.0938 21.8438 18.0938 21.25ZM57.2578 20.4062C57.2578 21.625 57.1484 22.7344 56.9297 23.7344C56.7266 24.7188 56.3984 25.625 55.9453 26.4531C55.4922 27.2812 54.9062 28.0469 54.1875 28.75C53.4688 29.4531 52.6016 30.125 51.5859 30.7656L57.1641 40.7031L46.6172 42.7656L43.0078 32.7812L40.1016 32.875L39.6797 42.625H29.6016C29.6797 39.0625 29.75 35.5156 29.8125 31.9844C29.8906 28.4531 29.9766 24.9062 30.0703 21.3438C30.1016 19.5469 30.1328 17.7656 30.1641 16C30.1953 14.2344 30.2578 12.4531 30.3516 10.6562C31.4453 10.25 32.5234 9.91406 33.5859 9.64844C34.6484 9.38281 35.7109 9.17969 36.7734 9.03906C37.8516 8.88281 38.9375 8.78125 40.0312 8.73438C41.1406 8.67187 42.2734 8.64062 43.4297 8.64062C45.2109 8.64062 46.9297 8.89063 48.5859 9.39062C50.2578 9.875 51.7344 10.6094 53.0156 11.5938C54.2969 12.5781 55.3203 13.8047 56.0859 15.2734C56.8672 16.7422 57.2578 18.4531 57.2578 20.4062ZM46.7578 21.1562C46.7578 20.5 46.6641 19.8984 46.4766 19.3516C46.3047 18.8047 46.0391 18.3359 45.6797 17.9453C45.3359 17.5391 44.8984 17.2266 44.3672 17.0078C43.8516 16.7734 43.2422 16.6562 42.5391 16.6562C42.2266 16.6562 41.9219 16.6797 41.625 16.7266C41.3281 16.7578 41.0391 16.8125 40.7578 16.8906L40.3828 25.6094H40.9453C41.6172 25.6094 42.2969 25.5234 42.9844 25.3516C43.6875 25.1797 44.3125 24.9141 44.8594 24.5547C45.4219 24.1953 45.875 23.7344 46.2188 23.1719C46.5781 22.6094 46.7578 21.9375 46.7578 21.1562ZM87.5391 26.4531C87.5391 27.875 87.375 29.25 87.0469 30.5781C86.7188 31.8906 86.2422 33.125 85.6172 34.2812C85.0078 35.4375 84.2578 36.5 83.3672 37.4688C82.4922 38.4219 81.5 39.2422 80.3906 39.9297C79.2969 40.6172 78.1016 41.1562 76.8047 41.5469C75.5078 41.9219 74.1328 42.1094 72.6797 42.1094C71.2734 42.1094 69.9297 41.9297 68.6484 41.5703C67.3828 41.2109 66.1953 40.7109 65.0859 40.0703C63.9766 39.4141 62.9688 38.6328 62.0625 37.7266C61.1719 36.8047 60.4062 35.7891 59.7656 34.6797C59.1406 33.5547 58.6484 32.3516 58.2891 31.0703C57.9453 29.7891 57.7734 28.4531 57.7734 27.0625C57.7734 25.7031 57.9375 24.375 58.2656 23.0781C58.5938 21.7656 59.0625 20.5312 59.6719 19.375C60.2969 18.2188 61.0469 17.1562 61.9219 16.1875C62.7969 15.2188 63.7734 14.3828 64.8516 13.6797C65.9453 12.9766 67.125 12.4297 68.3906 12.0391C69.6562 11.6484 70.9922 11.4531 72.3984 11.4531C74.6641 11.4531 76.7266 11.8047 78.5859 12.5078C80.4609 13.2109 82.0547 14.2188 83.3672 15.5312C84.6953 16.8281 85.7188 18.4062 86.4375 20.2656C87.1719 22.1094 87.5391 24.1719 87.5391 26.4531ZM77.1328 27.0625C77.1328 26.3906 77.0312 25.7422 76.8281 25.1172C76.6406 24.4766 76.3594 23.9141 75.9844 23.4297C75.6094 22.9297 75.1406 22.5312 74.5781 22.2344C74.0312 21.9219 73.3984 21.7656 72.6797 21.7656C71.9453 21.7656 71.2891 21.8984 70.7109 22.1641C70.1328 22.4297 69.6328 22.7969 69.2109 23.2656C68.8047 23.7188 68.4922 24.2578 68.2734 24.8828C68.0547 25.4922 67.9453 26.1406 67.9453 26.8281C67.9453 27.4844 68.0391 28.1406 68.2266 28.7969C68.4141 29.4531 68.6953 30.0469 69.0703 30.5781C69.4453 31.1094 69.9062 31.5391 70.4531 31.8672C71.0156 32.1953 71.6641 32.3594 72.3984 32.3594C73.1328 32.3594 73.7891 32.2188 74.3672 31.9375C74.9609 31.6406 75.4609 31.25 75.8672 30.7656C76.2734 30.2656 76.5859 29.6953 76.8047 29.0547C77.0234 28.4141 77.1328 27.75 77.1328 27.0625ZM112.945 30.5312C112.945 32.6719 112.57 34.5469 111.82 36.1562C111.086 37.75 110.07 39.0781 108.773 40.1406C107.492 41.2031 105.984 42 104.25 42.5312C102.531 43.0625 100.68 43.3281 98.6953 43.3281C97.9297 43.3281 97.0859 43.2266 96.1641 43.0234C95.2578 42.8203 94.3359 42.5703 93.3984 42.2734C92.4609 41.9609 91.5547 41.6328 90.6797 41.2891C89.8203 40.9297 89.0547 40.5938 88.3828 40.2812L89.4141 30.625C90.7422 31.4219 92.2109 32.0312 93.8203 32.4531C95.4453 32.8594 97.0391 33.0625 98.6016 33.0625C98.8984 33.0625 99.2578 33.0547 99.6797 33.0391C100.102 33.0078 100.5 32.9375 100.875 32.8281C101.266 32.7031 101.594 32.5234 101.859 32.2891C102.125 32.0547 102.258 31.7188 102.258 31.2812C102.258 30.9844 102.164 30.7344 101.977 30.5312C101.789 30.3125 101.547 30.1406 101.25 30.0156C100.953 29.875 100.617 29.7734 100.242 29.7109C99.8672 29.6328 99.5 29.5781 99.1406 29.5469C98.7812 29.5156 98.4453 29.5 98.1328 29.5C97.8203 29.5 97.5703 29.5 97.3828 29.5C96.0391 29.5 94.8125 29.2656 93.7031 28.7969C92.6094 28.3281 91.6641 27.6797 90.8672 26.8516C90.0859 26.0078 89.4766 25.0156 89.0391 23.875C88.6016 22.7188 88.3828 21.4688 88.3828 20.125C88.3828 18.2812 88.75 16.6328 89.4844 15.1797C90.2344 13.7109 91.2266 12.4687 92.4609 11.4531C93.7109 10.4219 95.1406 9.63281 96.75 9.08594C98.3594 8.53906 100.023 8.26562 101.742 8.26562C102.508 8.26562 103.297 8.29687 104.109 8.35938C104.922 8.40625 105.727 8.5 106.523 8.64062C107.336 8.78125 108.125 8.96094 108.891 9.17969C109.656 9.39844 110.383 9.67188 111.07 10L110.18 19.5156C109.117 19.1562 108 18.8594 106.828 18.625C105.672 18.375 104.539 18.25 103.43 18.25C103.227 18.25 102.961 18.2578 102.633 18.2734C102.32 18.2734 101.984 18.2969 101.625 18.3438C101.281 18.375 100.93 18.4297 100.57 18.5078C100.211 18.5859 99.8906 18.6953 99.6094 18.8359C99.3281 18.9609 99.1016 19.1328 98.9297 19.3516C98.7578 19.5703 98.6797 19.8281 98.6953 20.125C98.7109 20.4688 98.8359 20.75 99.0703 20.9688C99.3203 21.1719 99.6328 21.3359 100.008 21.4609C100.398 21.5703 100.82 21.6484 101.273 21.6953C101.742 21.7422 102.203 21.7734 102.656 21.7891C103.109 21.7891 103.531 21.7891 103.922 21.7891C104.312 21.7734 104.633 21.7812 104.883 21.8125C106.133 21.8906 107.258 22.1562 108.258 22.6094C109.258 23.0625 110.102 23.6641 110.789 24.4141C111.492 25.1641 112.023 26.0625 112.383 27.1094C112.758 28.1406 112.945 29.2812 112.945 30.5312Z" fill="#FFE074"/>
</svg>
